<svg xmlns="http://www.w3.org/2000/svg" viewBox="0 0 59 59"><g><path fill="#FFF" d="M58.188 42.863l-1.444-.277a1.934 1.934 0 0 1-1.462-1.216 1.932 1.932 0 0 1 .245-1.885l.907-1.236a1 1 0 0 0-.1-1.299l-1.959-1.958a1.003 1.003 0 0 0-1.268-.121l-1.217.824a1.935 1.935 0 0 1-1.895.175 1.935 1.935 0 0 1-1.16-1.508l-.233-1.515a.998.998 0 0 0-.987-.847h-2.77a1 1 0 0 0-.982.812l-.358 1.865a1.94 1.94 0 0 1-1.181 1.448 1.937 1.937 0 0 1-1.86-.189l-1.572-1.064a1.003 1.003 0 0 0-1.268.121l-1.959 1.958a1 1 0 0 0-.1 1.299l.907 1.236c.408.556.498 1.243.245 1.885a1.934 1.934 0 0 1-1.462 1.216l-1.444.277a1 1 0 0 0-.811.982v2.77a1 1 0 0 0 .848.988l1.515.233a1.937 1.937 0 0 1 1.508 1.16 1.938 1.938 0 0 1-.175 1.895l-.824 1.217a1 1 0 0 0 .121 1.268l1.958 1.959c.348.349.899.391 1.299.1l1.236-.907a1.933 1.933 0 0 1 1.885-.245 1.934 1.934 0 0 1 1.216 1.462l.277 1.444a1 1 0 0 0 .982.81h2.77a1 1 0 0 0 .988-.848l.164-1.065a1.955 1.955 0 0 1 1.193-1.522 1.958 1.958 0 0 1 1.921.232l.869.638a.998.998 0 0 0 1.299-.1l1.958-1.959a1 1 0 0 0 .121-1.268l-.824-1.217a1.938 1.938 0 0 1-.175-1.895 1.935 1.935 0 0 1 1.508-1.16l1.515-.233a1 1 0 0 0 .847-.988v-2.77c0-.479-.341-.891-.812-.982zM57 45.758l-.667.103a3.95 3.95 0 0 0-3.036 2.337 3.95 3.95 0 0 0 .352 3.815l.361.533-.768.768-.177-.13a3.95 3.95 0 0 0-3.869-.467 3.942 3.942 0 0 0-2.405 3.065l-.033.218h-1.086l-.121-.633a3.952 3.952 0 0 0-2.449-2.947 3.958 3.958 0 0 0-3.8.494l-.544.399-.768-.768.361-.533a3.953 3.953 0 0 0 .352-3.815 3.95 3.95 0 0 0-3.036-2.337L35 45.758v-1.086l.633-.121a3.952 3.952 0 0 0 2.947-2.449 3.956 3.956 0 0 0-.494-3.8l-.399-.544.768-.768.889.602a3.96 3.96 0 0 0 3.747.381 3.963 3.963 0 0 0 2.38-2.919L45.672 34h1.086l.103.667a3.95 3.95 0 0 0 2.337 3.036 3.95 3.95 0 0 0 3.815-.352l.533-.361.768.768-.399.544a3.952 3.952 0 0 0-.494 3.8 3.953 3.953 0 0 0 2.947 2.449l.632.121v1.086z"/><path fill="#FFF" d="M46 40c-2.757 0-5 2.243-5 5s2.243 5 5 5 5-2.243 5-5-2.243-5-5-5zm0 8c-1.654 0-3-1.346-3-3s1.346-3 3-3 3 1.346 3 3-1.346 3-3 3zM30.704 32.279a18.792 18.792 0 0 1-1.901-3.049l-.046-.092-.014-.028a19.765 19.765 0 0 1-.324-.691l-.05-.113a15.689 15.689 0 0 1-.388-.957 16.136 16.136 0 0 1-.289-.847l-.072-.236c-.094-.31-.181-.627-.257-.954l-.005-.02-.017-.073-.073-.323-.342-.221A1.99 1.99 0 0 1 26 23v-4c0-.561.238-1.085.67-1.475l.33-.297v-6.582l-.027-.021c-.035-.721.009-2.935 1.623-4.777C30.253 3.958 33.081 3 37 3c3.905 0 6.727.951 8.386 2.828 1.947 2.201 1.626 5.017 1.623 5.041L47 17.228l.33.298c.432.389.67.913.67 1.474v4c0 .873-.571 1.637-1.422 1.899a1 1 0 0 0 .59 1.91A3.976 3.976 0 0 0 50 23v-4a3.98 3.98 0 0 0-1-2.625v-5.319c.057-.55.276-3.824-2.092-6.525C44.854 2.188 41.521 1 37 1s-7.854 1.188-9.908 3.53c-1.435 1.637-1.917 3.481-2.064 4.805C23.313 8.449 21.294 8 19 8 8.611 8 8.007 16.855 8 17v4.579c-.648.707-1 1.521-1 2.33v3.454c0 1.079.483 2.085 1.311 2.765.824 3.11 2.854 5.46 3.644 6.285v2.743c0 .787-.429 1.509-1.171 1.915l-6.651 4.173A7.922 7.922 0 0 0 0 52.203V56h27a1 1 0 1 0 0-2H16v-2.238a7.017 7.017 0 0 1 3.658-6.164l8.923-4.866A4.645 4.645 0 0 0 31 36.655v-4.019l-.232-.278c-.003-.002-.028-.034-.064-.079zM29 36.655c0 .968-.528 1.856-1.377 2.32l-2.646 1.443-.649.354-5.627 3.069A9.016 9.016 0 0 0 14 51.761V54H2v-1.797c0-2.17 1.184-4.164 3.142-5.233l6.651-4.173a4.143 4.143 0 0 0 2.161-3.641l-.001-3.59-.315-.297c-.027-.024-2.688-2.556-3.469-5.956l-.091-.396-.342-.22A1.588 1.588 0 0 1 9 27.363v-3.454c0-.359.244-.788.671-1.174l.329-.297-.002-5.379C10.017 16.771 10.536 10 19 10c2.394 0 4.409.553 6 1.644v4.731A3.98 3.98 0 0 0 24 19v4c0 .716.211 1.393.561 1.992.245.419.547.805.936 1.117l.022.075c.058.221.118.439.182.649l.083.272.05.152c.033.102.065.203.1.303.06.177.124.359.198.557.03.079.062.148.092.225.085.218.171.429.261.637.017.039.033.084.05.123l.06.136c.027.061.055.115.083.175.094.205.187.405.282.598.018.036.035.077.053.113l.075.146c.019.037.037.066.056.102a21.908 21.908 0 0 0 1.033 1.789l.022.035c.33.509.616.908.802 1.151v3.308z"/></g></svg>